# xmcd CD database file
#
# Track frame offsets:
#	183
#	50313
#	111848
#	139208
#	167500
#	185473
#	197085
#	208088
#	232815
#
# Disc length: 3284 seconds
#
# Revision: 4
# Processed by: cddbd v1.5.2PL0 Copyright (c) Steve Scherf et al.
# Submitted via: CDex 1.51
#
DISCID=780cd209
DTITLE=Bill Perkins, Richie Kamuca and Jack Montrose - West Coast Tenors  {1957}
DYEAR=1988
DGENRE=Jazz
TTITLE0=Allen's Alley
TTITLE1=Counting
TTITLE2=Montrose
TTITLE3=The Mouse Hop
TTITLE4=Jazz City
TTITLE5=Sweet Saxophones
TTITLE6=Early Morning Smog
TTITLE7=Two Visitors
TTITLE8=Cute
EXTD=YEAR: 1988
EXTT0=
EXTT1=
EXTT2=
EXTT3=
EXTT4=
EXTT5=
EXTT6=
EXTT7=
EXTT8=
PLAYORDER=
